<?xml version="1.0" encoding="UTF-8" standalone="no"?><!DOCTYPE svg PUBLIC "-//W3C//DTD SVG 1.1//EN" "http://www.w3.org/Graphics/SVG/1.1/DTD/svg11.dtd"><svg width="100%" height="100%" viewBox="0 0 1808 267" version="1.1" xmlns="http://www.w3.org/2000/svg" xmlns:xlink="http://www.w3.org/1999/xlink" xml:space="preserve" xmlns:serif="http://www.serif.com/" style="fill-rule:evenodd;clip-rule:evenodd;stroke-linejoin:round;stroke-miterlimit:2;"><g><path d="M1432.6,224.46c-38.483,-0 -41.639,-3.2 -41.639,-41.64c-0,-21.1 7.48,-55.303 17.598,-65.68c15.134,-15.48 43.369,-10.377 69.313,-10.377c-0,13.317 -9.427,88.943 -18.118,103.212c-4.626,7.61 -14.96,14.485 -27.197,14.485l0.043,-0Zm52.536,-155.662c-10.075,0 -34.202,-5.448 -56.125,-5.448c-72.728,0 -99.58,32.516 -110.26,94.348c-14.788,85.787 18.42,106.585 92.143,106.585c76.447,0 111.946,-6.529 128.248,-72.728c7.004,-28.495 15.004,-97.072 19.933,-132.139c1.946,-13.794 5.751,-31.349 5.751,-44.926l-72.426,-0c-0.389,17.469 -7.264,35.629 -7.264,54.308Z" style="fill:#15a65b;"/><path d="M550.565,228.092c-31.175,7.264 -26.592,5.448 -59.756,5.448c-23.739,0 -19.933,-15.826 -19.933,-28.97c-0,-9.556 3.242,-21.274 7.653,-26.765c13.793,-17.166 53.227,-5.838 77.485,-5.838c-0,20.885 -5.449,35.543 -5.449,56.125Zm-132.225,-117.654c20.625,-1.73 35.37,-5.448 61.573,-5.448c77.83,-0 81.506,-5.535 81.506,43.455c-14.226,0 -30.744,-3.632 -50.72,-3.632l-65.205,0c-43.455,0 -52.536,42.72 -52.536,79.647c0,17.123 6.4,26.376 18.637,32.04c28.278,13.058 142.386,8.345 176.459,3.675c6.27,-0.864 17.036,-2.983 23.046,-5.923c7.567,-3.719 6.184,-1.254 9.037,-19.934c6.054,-39.564 13.707,-80.079 13.707,-120.291c0,-56.946 -75.409,-50.677 -124.961,-50.677c-52.579,0 -89.462,-2.508 -90.543,47.045l-0,0.043Z" style="fill:#00429c;"/><path d="M1204.39,228.092c-31.175,7.264 -26.592,5.448 -59.756,5.448c-23.739,0 -19.934,-15.826 -19.934,-28.97c0,-52.925 51.628,-32.603 85.138,-32.603c0,20.885 -5.448,35.543 -5.448,56.125Zm-132.225,-117.654c20.625,-1.73 35.369,-5.448 61.572,-5.448c77.831,-0 81.506,-5.535 81.506,43.455c-14.225,0 -30.743,-3.632 -50.719,-3.632l-65.205,0c-43.456,0 -52.536,42.72 -52.536,79.647c0,17.123 6.4,26.376 18.636,32.04c28.279,13.058 142.387,8.345 176.46,3.675c6.269,-0.864 17.036,-2.983 23.046,-5.923c7.567,-3.719 6.183,-1.254 9.037,-19.934c6.054,-39.564 13.707,-80.079 13.707,-120.291c0,-56.946 -75.409,-50.677 -124.961,-50.677c-52.579,0 -89.462,-2.508 -90.543,47.045l-0,0.043Z" style="fill:#15a65b;"/><path d="M134.042,251.614c-0,4.367 6.486,10.853 10.853,10.853c69.961,0 60.232,4.281 62.437,-13.62l18.55,-131.707c1.211,-3.978 -1.384,-5.751 13.923,-9.599c16.388,-4.108 55.433,-6.529 55.433,17.382c-0,23.133 -17.685,119.297 -18.118,137.587c88.641,0 70.653,15.004 87.949,-102.174c14.312,-96.942 -6.616,-95.17 -122.367,-95.17c-22.874,0 -46.309,3.287 -65.378,7.048c-18.852,3.719 -19.803,3.373 -21.36,14.831l-13.62,98.629c-2.379,16.215 -8.259,52.017 -8.259,65.94l-0.043,0Z" style="fill:#00429c;"/><path d="M1575.68,197.306c-0,30.786 3.891,48.168 32.516,59.799c30.354,12.324 116.054,9.989 150.126,5.103c22.874,-3.243 36.451,-16.691 36.451,-43.196c-9.556,-0 -9.902,1.383 -18.117,1.816l-86.954,1.816c-38.483,-0 -38.051,-17.209 -38.051,-39.824c0,-16.863 5.492,-39.823 10.118,-53.227c8.821,-25.468 27.111,-26.419 49.639,-26.419c31.435,-0 32.473,26.073 27.154,48.86c-13.966,0 -35.456,-1.254 -48.471,0.432c-15.436,1.989 -24.387,8.086 -25.771,24.906l137.631,0c-0,-26.289 14.053,-59.108 -1.859,-85.051c-3.849,-6.27 -8.648,-11.156 -15.653,-15.134c-26.376,-15.047 -58.589,-12.064 -89.376,-12.064c-38.18,0 -75.106,11.242 -91.624,33.294c-16.56,22.139 -27.889,60.881 -27.889,98.845l0.13,0.044Z" style="fill:#15a65b;"/><path d="M691.871,65.166l-21.749,0c0,12.626 -4.41,27.63 -5.448,39.824l19.933,-0c0,73.334 -48.687,159.293 34.419,159.293l27.154,0c15.48,0 23.954,-3.632 38.05,-3.632c0.217,-8.821 3.416,-20.106 3.633,-28.97c-3.633,1.729 -41.64,12.02 -41.64,-10.853c0,-27.63 8.172,-70.221 11.891,-100.359c2.465,-19.803 -7.524,-15.523 49.682,-15.523c1.038,-12.193 5.448,-27.197 5.448,-39.823l-47.088,0c0,-9.685 6.184,-37.834 7.265,-50.676c-13.491,-0 -54.525,-1.816 -64.903,0.302c-13.663,2.811 -16.344,38.916 -16.603,50.374l-0.044,0.043Z" style="fill:#15a65b;"/><path d="M820.422,249.841c-0,7.091 6.745,12.669 14.485,12.669l57.94,0c0,-12.366 7.87,-60.794 10.118,-76.793l10.248,-73.031c3.373,-13.663 16.777,-13.101 32.17,-13.101c5.794,-0 10.767,1.211 14.139,3.978c8.691,7.178 5.103,19.025 3.676,28.538l70.955,0.043c1.254,-15.307 6.313,-33.943 -5.059,-49.25c-3.805,-5.102 -8.864,-8.085 -14.831,-10.55c-34.634,-14.226 -119.945,-6.443 -155.661,0.13c-19.198,3.545 -14.053,-2.032 -21.533,50.892c-3.027,21.447 -5.405,40.472 -8.605,62.006c-1.686,11.371 -2.81,21.403 -4.28,31.91c-1.557,10.983 -3.719,20.495 -3.719,32.473l-0.043,0.086Z" style="fill:#15a65b;"/><path d="M0,224.46c0,54.006 63.518,39.65 105.028,36.191c1.73,-7.351 3.632,-18.247 3.632,-27.154c-8.864,1.297 -19.803,4.28 -27.543,-1.427c-11.934,-8.734 1.384,-68.448 4.54,-90.37c1.686,-11.675 3.502,-24.733 5.448,-38.007c1.513,-10.378 4.886,-26.679 4.886,-38.57l-74.242,0l-10.982,79.56c-1.816,13.102 -3.589,25.814 -5.881,39.391c-1.686,10.032 -4.886,28.668 -4.886,40.343l0,0.043Z" style="fill:#00429c;"/><path d="M32.602,25.343c0,7.048 4.757,13.058 10.248,15.134c2.94,1.081 20.409,2.897 23.652,2.551c5.491,-0.562 16.171,-1.427 21.23,-4.238c11.026,-6.096 10.075,-16.56 10.075,-26.116c0,-15.523 -42.72,-15.177 -54.654,-7.567c-5.362,3.416 -10.507,12.021 -10.507,20.236l-0.044,0Z" style="fill:#00429c;"/></g></svg>